<?xml version="1.0" encoding="UTF-8"?>
<svg xmlns="http://www.w3.org/2000/svg" viewBox="0 0 1200 1000" width="1200" height="1000">
<defs>
  <pattern id="grid" width="27.5" height="27.5" patternUnits="userSpaceOnUse">
    <path d="M 27.5 0 L 0 0 0 27.5" fill="none" stroke="#f1f5f9" stroke-width="0.75"/>
  </pattern>
  <pattern id="wood_deck" width="6" height="27.5" patternUnits="userSpaceOnUse">
    <line x1="0" y1="0" x2="0" y2="27.5" stroke="#cbd5e1" stroke-width="1"/>
    <rect width="6" height="27.5" fill="#f8fafc" opacity="0.6"/>
  </pattern>
  <pattern id="checker_qatif" width="22" height="22" patternUnits="userSpaceOnUse">
    <rect width="11" height="11" fill="#f1f5f9"/>
    <rect x="11" width="11" height="11" fill="#e2e8f0"/>
    <rect y="11" width="11" height="11" fill="#e2e8f0"/>
    <rect x="11" y="11" width="11" height="11" fill="#f1f5f9"/>
  </pattern>
</defs>
<rect width="1200" height="1000" fill="#fafaf9"/>
<rect width="1200" height="1000" fill="url(#grid)"/>
<rect x="132.5" y="130.0" width="935.0" height="770.0" rx="0" fill="#f8fafc" stroke="#94a3b8" stroke-width="2"/>
<rect x="138.0" y="135.5" width="924.0" height="759.0" rx="0" fill="none" stroke="#cbd5e1" stroke-width="1.5" stroke-dasharray="6,4"/>
<rect x="146.2" y="776.2" width="541.8" height="110.0" rx="0" fill="#ecfccb" stroke="#bef264" stroke-width="1"/>
<rect x="861.2" y="583.8" width="192.5" height="302.5" rx="0" fill="#ecfccb" stroke="#bef264" stroke-width="1"/>
<polygon points="215.0,773.5 250.2,848.3 179.8,848.3" fill="#15803d" opacity="0.45"/>
<circle cx="215.0" cy="817.5" r="3" fill="#3f2e1e"/>
<polygon points="215.0,416.0 250.2,490.8 179.8,490.8" fill="#15803d" opacity="0.45"/>
<circle cx="215.0" cy="460.0" r="3" fill="#3f2e1e"/>
<polygon points="215.0,168.5 250.2,243.3 179.8,243.3" fill="#15803d" opacity="0.45"/>
<circle cx="215.0" cy="212.5" r="3" fill="#3f2e1e"/>
<polygon points="985.0,773.5 1020.2,848.3 949.8,848.3" fill="#15803d" opacity="0.45"/>
<circle cx="985.0" cy="817.5" r="3" fill="#3f2e1e"/>
<polygon points="985.0,443.5 1020.2,518.3 949.8,518.3" fill="#15803d" opacity="0.45"/>
<circle cx="985.0" cy="487.5" r="3" fill="#3f2e1e"/>
<polygon points="985.0,168.5 1020.2,243.3 949.8,243.3" fill="#15803d" opacity="0.45"/>
<circle cx="985.0" cy="212.5" r="3" fill="#3f2e1e"/>
<rect x="242.5" y="171.2" width="715.0" height="398.8" rx="0" fill="#e7e5e4" stroke="#78716c" stroke-width="2"/>
<text x="820.0" y="198.8" font-family="Inter, system-ui, sans-serif" font-size="8.5" font-weight="700" fill="#57534e" text-anchor="middle">STONE TERRACE PLINTH (LEVEL +1.45m)</text>
<rect x="710.0" y="570.0" width="110.0" height="82.5" rx="0" fill="#f5f5f4" stroke="#44403c" stroke-width="1.5"/>
<line x1="710.0" y1="642.2" x2="820.0" y2="642.2" stroke="#78716c" stroke-width="1"/>
<line x1="710.0" y1="631.9" x2="820.0" y2="631.9" stroke="#78716c" stroke-width="1"/>
<line x1="710.0" y1="621.6" x2="820.0" y2="621.6" stroke="#78716c" stroke-width="1"/>
<line x1="710.0" y1="611.2" x2="820.0" y2="611.2" stroke="#78716c" stroke-width="1"/>
<line x1="710.0" y1="600.9" x2="820.0" y2="600.9" stroke="#78716c" stroke-width="1"/>
<line x1="710.0" y1="590.6" x2="820.0" y2="590.6" stroke="#78716c" stroke-width="1"/>
<line x1="710.0" y1="580.3" x2="820.0" y2="580.3" stroke="#78716c" stroke-width="1"/>
<line x1="765.0" y1="644.2" x2="765.0" y2="578.2" stroke="#b91c1c" stroke-width="1.5"/>
<polygon points="765.0,578.25 761.0,585.25 769.0,585.25" fill="#b91c1c"/>
<text x="765.0" y="636.0" font-family="Inter, system-ui, sans-serif" font-size="8.5" font-weight="700" fill="#b91c1c" text-anchor="middle">UP</text>
<text x="765.0" y="611.2" font-family="Inter, system-ui, sans-serif" font-size="8" font-weight="700" fill="#b91c1c" text-anchor="middle">CEREMONIAL TERRACE STAIR</text>
<rect x="261.8" y="176.8" width="236.5" height="112.8" rx="0" fill="#f1f5f9" stroke="#cbd5e1" stroke-width="1"/>
<rect x="270.0" y="185.0" width="220.0" height="96.2" rx="0" fill="#0284c7" stroke="#0369a1" stroke-width="1.5" opacity="0.35"/>
<text x="380.0" y="233.1" font-family="Inter, system-ui, sans-serif" font-size="9" font-weight="600" fill="#0369a1" text-anchor="middle">WATER POOL</text>
<rect x="888.8" y="611.2" width="137.5" height="151.2" rx="0" fill="#f1f5f9" stroke="#94a3b8" stroke-width="1" stroke-dasharray="5,5"/>
<text x="957.5" y="625.0" font-family="Inter, system-ui, sans-serif" font-size="8.5" font-weight="700" fill="#475569" text-anchor="middle">CARPORT</text>
<g transform="translate(957.5,693.8) rotate(0)"><rect x="-28.9" y="-66.0" width="57.8" height="132.0" rx="6" fill="#e2e8f0" stroke="#64748b" stroke-width="1.5"/><rect x="-25.9" y="-33.0" width="51.8" height="66.0" rx="4" fill="#cbd5e1" stroke="#64748b" stroke-width="1"/><text x="0" y="3" font-family="sans-serif" font-size="8.5" font-weight="600" fill="#334155" text-anchor="middle">PARKING</text></g>
<rect x="264.5" y="743.2" width="423.5" height="11.0" rx="0" fill="#36302a" stroke="#1c1917" stroke-width="1.5"/>
<rect x="264.5" y="570.0" width="12.4" height="178.8" rx="0" fill="#36302a" stroke="#1c1917" stroke-width="1.5"/>
<rect x="677.0" y="570.0" width="11.0" height="178.8" rx="0" fill="#36302a" stroke="#1c1917" stroke-width="1.5"/>
<rect x="270.0" y="564.5" width="412.5" height="11.0" rx="0" fill="#36302a" stroke="#1c1917" stroke-width="1.5"/>
<line x1="292.0" y1="751.0" x2="366.2" y2="751.0" stroke="#0284c7" stroke-width="2.5"/>
<line x1="355.2" y1="746.5" x2="429.5" y2="746.5" stroke="#0284c7" stroke-width="2.5"/>
<line x1="292.0" y1="754.8" x2="292.0" y2="742.7" stroke="#1e293b" stroke-width="2"/>
<line x1="429.5" y1="754.8" x2="429.5" y2="742.7" stroke="#1e293b" stroke-width="2"/>
<line x1="451.5" y1="751.0" x2="525.8" y2="751.0" stroke="#0284c7" stroke-width="2.5"/>
<line x1="514.8" y1="746.5" x2="589.0" y2="746.5" stroke="#0284c7" stroke-width="2.5"/>
<line x1="451.5" y1="754.8" x2="451.5" y2="742.7" stroke="#1e293b" stroke-width="2"/>
<line x1="589.0" y1="754.8" x2="589.0" y2="742.7" stroke="#1e293b" stroke-width="2"/>
<line x1="611.0" y1="751.0" x2="642.6" y2="751.0" stroke="#0284c7" stroke-width="2.5"/>
<line x1="631.6" y1="746.5" x2="663.2" y2="746.5" stroke="#0284c7" stroke-width="2.5"/>
<line x1="611.0" y1="754.8" x2="611.0" y2="742.7" stroke="#1e293b" stroke-width="2"/>
<line x1="663.2" y1="754.8" x2="663.2" y2="742.7" stroke="#1e293b" stroke-width="2"/>
<rect x="490.0" y="570.0" width="5.5" height="178.8" rx="0" fill="#36302a" stroke="#1c1917" stroke-width="1.5"/>
<line x1="492.8" y1="652.5" x2="517.5" y2="652.5" stroke="#45382e" stroke-width="2"/>
<path d="M 517.5 652.5 A 24.8 24.8 0 0 1 492.8 627.8" fill="none" stroke="#45382e" stroke-width="1.2" stroke-dasharray="3,3" opacity="0.85"/>
<text x="380.0" y="648.4" font-family="Inter, system-ui, sans-serif" font-size="11" font-weight="700" fill="#0f172a" text-anchor="middle">GRAND GARDEN LIVING &amp; DINING</text>
<text x="380.0" y="659.4" font-family="Inter, system-ui, sans-serif" font-size="9.5" font-weight="500" fill="#475569" text-anchor="middle">صالة المعيشة والطعام المطلة على الحديقة</text>
<text x="380.0" y="670.4" font-family="Inter, system-ui, sans-serif" font-size="8.5" font-weight="400" fill="#64748b" text-anchor="middle">7.80m × 6.10m</text>
<text x="586.2" y="648.4" font-family="Inter, system-ui, sans-serif" font-size="11" font-weight="700" fill="#0f172a" text-anchor="middle">FAMILY KITCHEN &amp; PANTRY</text>
<text x="586.2" y="659.4" font-family="Inter, system-ui, sans-serif" font-size="9.5" font-weight="500" fill="#475569" text-anchor="middle">المطبخ العائلي والمستودع</text>
<text x="586.2" y="670.4" font-family="Inter, system-ui, sans-serif" font-size="8.5" font-weight="400" fill="#64748b" text-anchor="middle">6.20m × 6.10m</text>
<rect x="270.0" y="570.0" width="412.5" height="178.8" rx="0" fill="none" stroke="#dc2626" stroke-width="1.5" stroke-dasharray="6,3"/>
<text x="476.2" y="735.0" font-family="Inter, system-ui, sans-serif" font-size="7.5" font-weight="700" fill="#dc2626" text-anchor="middle">ROOFTOP TERRACE WITH AL-QATT AL-ASIRI FRIEZE</text>
<rect x="347.0" y="563.1" width="231.0" height="12.4" rx="0" fill="#36302a" stroke="#1c1917" stroke-width="1.5"/>
<rect x="347.0" y="344.5" width="231.0" height="11.0" rx="0" fill="#36302a" stroke="#1c1917" stroke-width="1.5"/>
<rect x="347.0" y="350.0" width="12.4" height="220.0" rx="0" fill="#36302a" stroke="#1c1917" stroke-width="1.5"/>
<rect x="565.6" y="350.0" width="12.4" height="220.0" rx="0" fill="#36302a" stroke="#1c1917" stroke-width="1.5"/>
<rect x="407.5" y="563.1" width="27.5" height="13.8" rx="0" fill="#ffffff" stroke="#1c1917" stroke-width="1.2"/>
<line x1="407.5" y1="570.0" x2="435.0" y2="570.0" stroke="#0284c7" stroke-width="2.5"/>
<line x1="407.5" y1="576.9" x2="407.5" y2="563.1" stroke="#1c1917" stroke-width="1.2"/>
<line x1="435.0" y1="576.9" x2="435.0" y2="563.1" stroke="#1c1917" stroke-width="1.2"/>
<line x1="421.2" y1="576.9" x2="421.2" y2="563.1" stroke="#0284c7" stroke-width="1"/>
<rect x="490.0" y="563.1" width="27.5" height="13.8" rx="0" fill="#ffffff" stroke="#1c1917" stroke-width="1.2"/>
<line x1="490.0" y1="570.0" x2="517.5" y2="570.0" stroke="#0284c7" stroke-width="2.5"/>
<line x1="490.0" y1="576.9" x2="490.0" y2="563.1" stroke="#1c1917" stroke-width="1.2"/>
<line x1="517.5" y1="576.9" x2="517.5" y2="563.1" stroke="#1c1917" stroke-width="1.2"/>
<line x1="503.8" y1="576.9" x2="503.8" y2="563.1" stroke="#0284c7" stroke-width="1"/>
<rect x="345.6" y="487.5" width="13.8" height="27.5" rx="0" fill="#ffffff" stroke="#1c1917" stroke-width="1.2"/>
<line x1="352.5" y1="515.0" x2="352.5" y2="487.5" stroke="#0284c7" stroke-width="2.5"/>
<line x1="345.6" y1="515.0" x2="359.4" y2="515.0" stroke="#1c1917" stroke-width="1.2"/>
<line x1="345.6" y1="487.5" x2="359.4" y2="487.5" stroke="#1c1917" stroke-width="1.2"/>
<line x1="345.6" y1="501.2" x2="359.4" y2="501.2" stroke="#0284c7" stroke-width="1"/>
<rect x="345.6" y="391.2" width="13.8" height="27.5" rx="0" fill="#ffffff" stroke="#1c1917" stroke-width="1.2"/>
<line x1="352.5" y1="418.8" x2="352.5" y2="391.2" stroke="#0284c7" stroke-width="2.5"/>
<line x1="345.6" y1="418.8" x2="359.4" y2="418.8" stroke="#1c1917" stroke-width="1.2"/>
<line x1="345.6" y1="391.2" x2="359.4" y2="391.2" stroke="#1c1917" stroke-width="1.2"/>
<line x1="345.6" y1="405.0" x2="359.4" y2="405.0" stroke="#0284c7" stroke-width="1"/>
<rect x="503.8" y="363.8" width="63.2" height="123.8" rx="0" fill="#f5f5f4" stroke="#44403c" stroke-width="1.5"/>
<line x1="503.8" y1="477.2" x2="567.0" y2="477.2" stroke="#78716c" stroke-width="1"/>
<line x1="503.8" y1="466.9" x2="567.0" y2="466.9" stroke="#78716c" stroke-width="1"/>
<line x1="503.8" y1="456.6" x2="567.0" y2="456.6" stroke="#78716c" stroke-width="1"/>
<line x1="503.8" y1="446.2" x2="567.0" y2="446.2" stroke="#78716c" stroke-width="1"/>
<line x1="503.8" y1="435.9" x2="567.0" y2="435.9" stroke="#78716c" stroke-width="1"/>
<line x1="503.8" y1="425.6" x2="567.0" y2="425.6" stroke="#78716c" stroke-width="1"/>
<line x1="503.8" y1="415.3" x2="567.0" y2="415.3" stroke="#78716c" stroke-width="1"/>
<line x1="503.8" y1="405.0" x2="567.0" y2="405.0" stroke="#78716c" stroke-width="1"/>
<line x1="503.8" y1="394.7" x2="567.0" y2="394.7" stroke="#78716c" stroke-width="1"/>
<line x1="503.8" y1="384.4" x2="567.0" y2="384.4" stroke="#78716c" stroke-width="1"/>
<line x1="503.8" y1="374.1" x2="567.0" y2="374.1" stroke="#78716c" stroke-width="1"/>
<line x1="535.4" y1="479.2" x2="535.4" y2="372.0" stroke="#b91c1c" stroke-width="1.5"/>
<polygon points="535.375,372.0 531.375,379.0 539.375,379.0" fill="#b91c1c"/>
<text x="535.4" y="471.0" font-family="Inter, system-ui, sans-serif" font-size="8.5" font-weight="700" fill="#b91c1c" text-anchor="middle">UP</text>
<line x1="503.8" y1="482.0" x2="479.0" y2="482.0" stroke="#45382e" stroke-width="2"/>
<path d="M 479.0 482.0 A 24.8 24.8 0 0 1 503.8 506.8" fill="none" stroke="#45382e" stroke-width="1.2" stroke-dasharray="3,3" opacity="0.85"/>
<line x1="462.5" y1="567.2" x2="462.5" y2="539.8" stroke="#45382e" stroke-width="2"/>
<path d="M 462.5 539.8 A 27.5 27.5 0 0 1 435.0 567.2" fill="none" stroke="#45382e" stroke-width="1.2" stroke-dasharray="3,3" opacity="0.85"/>
<text x="448.8" y="464.1" font-family="Inter, system-ui, sans-serif" font-size="11" font-weight="700" fill="#0f172a" text-anchor="middle">MAIN TOWER (TOWER A)
FAMILY RECEPTION &amp; LIBRARY</text>
<text x="448.8" y="475.1" font-family="Inter, system-ui, sans-serif" font-size="9.5" font-weight="500" fill="#475569" text-anchor="middle">البرج الرئيسي - صالة الاستقبال العائلية</text>
<text x="448.8" y="486.1" font-family="Inter, system-ui, sans-serif" font-size="8.5" font-weight="400" fill="#64748b" text-anchor="middle">7.00m × 7.00m (4 FLOORS)</text>
<rect x="594.5" y="480.6" width="176.0" height="12.4" rx="0" fill="#36302a" stroke="#1c1917" stroke-width="1.5"/>
<rect x="594.5" y="289.5" width="176.0" height="11.0" rx="0" fill="#36302a" stroke="#1c1917" stroke-width="1.5"/>
<rect x="594.5" y="295.0" width="12.4" height="192.5" rx="0" fill="#36302a" stroke="#1c1917" stroke-width="1.5"/>
<rect x="758.1" y="295.0" width="12.4" height="192.5" rx="0" fill="#36302a" stroke="#1c1917" stroke-width="1.5"/>
<line x1="652.2" y1="487.5" x2="652.2" y2="460.0" stroke="#45382e" stroke-width="2"/>
<path d="M 652.2 460.0 A 27.5 27.5 0 0 1 624.8 487.5" fill="none" stroke="#45382e" stroke-width="1.2" stroke-dasharray="3,3" opacity="0.85"/>
<rect x="710.0" y="480.6" width="27.5" height="13.8" rx="0" fill="#ffffff" stroke="#1c1917" stroke-width="1.2"/>
<line x1="710.0" y1="487.5" x2="737.5" y2="487.5" stroke="#0284c7" stroke-width="2.5"/>
<line x1="710.0" y1="494.4" x2="710.0" y2="480.6" stroke="#1c1917" stroke-width="1.2"/>
<line x1="737.5" y1="494.4" x2="737.5" y2="480.6" stroke="#1c1917" stroke-width="1.2"/>
<line x1="723.8" y1="494.4" x2="723.8" y2="480.6" stroke="#0284c7" stroke-width="1"/>
<rect x="758.1" y="405.0" width="13.8" height="27.5" rx="0" fill="#ffffff" stroke="#1c1917" stroke-width="1.2"/>
<line x1="765.0" y1="432.5" x2="765.0" y2="405.0" stroke="#0284c7" stroke-width="2.5"/>
<line x1="758.1" y1="432.5" x2="771.9" y2="432.5" stroke="#1c1917" stroke-width="1.2"/>
<line x1="758.1" y1="405.0" x2="771.9" y2="405.0" stroke="#1c1917" stroke-width="1.2"/>
<line x1="758.1" y1="418.8" x2="771.9" y2="418.8" stroke="#0284c7" stroke-width="1"/>
<rect x="758.1" y="336.2" width="13.8" height="27.5" rx="0" fill="#ffffff" stroke="#1c1917" stroke-width="1.2"/>
<line x1="765.0" y1="363.8" x2="765.0" y2="336.2" stroke="#0284c7" stroke-width="2.5"/>
<line x1="758.1" y1="363.8" x2="771.9" y2="363.8" stroke="#1c1917" stroke-width="1.2"/>
<line x1="758.1" y1="336.2" x2="771.9" y2="336.2" stroke="#1c1917" stroke-width="1.2"/>
<line x1="758.1" y1="350.0" x2="771.9" y2="350.0" stroke="#0284c7" stroke-width="1"/>
<rect x="688.0" y="306.0" width="66.0" height="85.2" rx="0" fill="#f5f5f4" stroke="#44403c" stroke-width="1.5"/>
<line x1="688.0" y1="382.7" x2="754.0" y2="382.7" stroke="#78716c" stroke-width="1"/>
<line x1="688.0" y1="374.2" x2="754.0" y2="374.2" stroke="#78716c" stroke-width="1"/>
<line x1="688.0" y1="365.7" x2="754.0" y2="365.7" stroke="#78716c" stroke-width="1"/>
<line x1="688.0" y1="357.1" x2="754.0" y2="357.1" stroke="#78716c" stroke-width="1"/>
<line x1="688.0" y1="348.6" x2="754.0" y2="348.6" stroke="#78716c" stroke-width="1"/>
<line x1="688.0" y1="340.1" x2="754.0" y2="340.1" stroke="#78716c" stroke-width="1"/>
<line x1="688.0" y1="331.6" x2="754.0" y2="331.6" stroke="#78716c" stroke-width="1"/>
<line x1="688.0" y1="323.1" x2="754.0" y2="323.1" stroke="#78716c" stroke-width="1"/>
<line x1="688.0" y1="314.5" x2="754.0" y2="314.5" stroke="#78716c" stroke-width="1"/>
<line x1="721.0" y1="383.0" x2="721.0" y2="314.2" stroke="#b91c1c" stroke-width="1.5"/>
<polygon points="721.0,314.25 717.0,321.25 725.0,321.25" fill="#b91c1c"/>
<text x="721.0" y="374.8" font-family="Inter, system-ui, sans-serif" font-size="8.5" font-weight="700" fill="#b91c1c" text-anchor="middle">UP</text>
<text x="677.0" y="409.1" font-family="Inter, system-ui, sans-serif" font-size="11" font-weight="700" fill="#0f172a" text-anchor="middle">GUEST TOWER (TOWER B)
MEN'S HIGHLAND MAJLIS</text>
<text x="677.0" y="420.1" font-family="Inter, system-ui, sans-serif" font-size="9.5" font-weight="500" fill="#475569" text-anchor="middle">برج الضيافة - مجلس الرجال الجبلي</text>
<text x="677.0" y="431.1" font-family="Inter, system-ui, sans-serif" font-size="8.5" font-weight="400" fill="#64748b" text-anchor="middle">5.00m × 6.00m (3 FLOORS)</text>
<rect x="605.5" y="366.5" width="63.2" height="5.5" rx="0" fill="#36302a" stroke="#1c1917" stroke-width="1.5"/>
<line x1="633.0" y1="369.2" x2="633.0" y2="391.2" stroke="#45382e" stroke-width="2"/>
<path d="M 633.0 391.2 A 22.0 22.0 0 0 1 655.0 369.2" fill="none" stroke="#45382e" stroke-width="1.2" stroke-dasharray="3,3" opacity="0.85"/>
<text x="635.8" y="326.6" font-family="Inter, system-ui, sans-serif" font-size="11" font-weight="700" fill="#0f172a" text-anchor="middle">GUEST WC</text>
<text x="635.8" y="337.6" font-family="Inter, system-ui, sans-serif" font-size="9.5" font-weight="500" fill="#475569" text-anchor="middle">مياه الضيوف</text>
<line x1="270.0" y1="817.5" x2="682.5" y2="817.5" stroke="#64748b" stroke-width="1"/>
<line x1="270.0" y1="824.4" x2="270.0" y2="810.6" stroke="#64748b" stroke-width="1.2"/>
<line x1="682.5" y1="824.4" x2="682.5" y2="810.6" stroke="#64748b" stroke-width="1.2"/>
<text x="476.2" y="810.6" font-family="Inter, system-ui, sans-serif" font-size="8.5" font-weight="600" fill="#475569" text-anchor="middle">15.00m GARDEN WING</text>
<line x1="242.5" y1="680.0" x2="957.5" y2="680.0" stroke="#64748b" stroke-width="1"/>
<line x1="242.5" y1="686.9" x2="242.5" y2="673.1" stroke="#64748b" stroke-width="1.2"/>
<line x1="957.5" y1="686.9" x2="957.5" y2="673.1" stroke="#64748b" stroke-width="1.2"/>
<text x="600.0" y="673.1" font-family="Inter, system-ui, sans-serif" font-size="8.5" font-weight="600" fill="#475569" text-anchor="middle">26.00m TERRACED PLINTH</text>
<rect x="880" y="860" width="290" height="110" rx="6" fill="#ffffff" stroke="#cbd5e1" stroke-width="1.5" filter="drop-shadow(0 2px 4px rgba(0,0,0,0.06))"/><line x1="880" y1="892" x2="1170" y2="892" stroke="#f1f5f9" stroke-width="1"/><line x1="880" y1="930" x2="1170" y2="930" stroke="#f1f5f9" stroke-width="1"/><text x="894" y="881" font-family="Inter, sans-serif" font-size="13" font-weight="700" fill="#0f172a">STYLE 4 — ASIRI TOWER VILLA</text><text x="894" y="910" font-family="Inter, sans-serif" font-size="10" font-weight="500" fill="#334155">Twin Stone Towers on Terraced Plinth with Garden Pavilion</text><text x="894" y="923" font-family="Inter, sans-serif" font-size="9" fill="#64748b">HERITAGE VILLA STUDIO • ARCHITECTURAL PACKAGE</text><text x="894" y="952" font-family="Inter, sans-serif" font-size="9.5" font-weight="600" fill="#0f172a">SCALE: 1:100 CONCEPT</text><text x="1045" y="952" font-family="Inter, sans-serif" font-size="9" font-weight="500" fill="#64748b">LEVEL: GROUND PLAN</text>
<g transform="translate(1120,90)"><circle cx="0" cy="0" r="24" fill="#ffffff" stroke="#cbd5e1" stroke-width="1.5"/><polygon points="0,-18 7,12 0,6" fill="#dc2626"/><polygon points="0,-18 -7,12 0,6" fill="#1e293b"/><text x="0" y="-22" font-family="Inter, sans-serif" font-size="11" font-weight="bold" fill="#0f172a" text-anchor="middle">N</text></g>
<g transform="translate(60,940)"><rect x="0" y="-4" width="275.0" height="8" fill="#ffffff" stroke="#1e293b" stroke-width="1"/><rect x="0" y="-4" width="55.0" height="8" fill="#1e293b"/><rect x="137.5" y="-4" width="137.5" height="8" fill="#1e293b"/><text x="0" y="-8" font-family="sans-serif" font-size="9" text-anchor="middle" fill="#0f172a">0m</text><text x="55.0" y="-8" font-family="sans-serif" font-size="9" text-anchor="middle" fill="#0f172a">2m</text><text x="137.5" y="-8" font-family="sans-serif" font-size="9" text-anchor="middle" fill="#0f172a">5m</text><text x="275.0" y="-8" font-family="sans-serif" font-size="9" text-anchor="middle" fill="#0f172a">10m</text><text x="137.5" y="18" font-family="sans-serif" font-size="9.5" font-weight="600" text-anchor="middle" fill="#475569">METRIC SCALE (1:100)</text></g>
</svg>